<svg width="60" height="61" viewBox="0 0 60 61" fill="none" xmlns="http://www.w3.org/2000/svg">
<g clip-path="url(#clip0_9352_1260)">
<path d="M50.989 14.4519C50.5988 9.91757 48.5799 5.87934 45.4479 3.37441C42.819 1.27534 39.5781 0.412352 36.0743 0.885871C35.4459 0.969915 34.8133 1.07241 34.2033 1.17285C32.3795 1.46803 30.6585 1.74681 28.8922 1.61972C28.7669 1.61152 28.6416 1.59922 28.5163 1.58692C28.5122 1.58692 28.5081 1.58692 28.5061 1.58692C27.6024 1.49263 26.7069 1.29789 25.7643 1.09291C24.4888 0.816175 23.1724 0.531244 21.7963 0.502546C18.4281 0.432851 15.2139 1.79601 12.7411 4.33989C9.88839 7.27734 8.30902 11.457 8.5185 15.5219C8.70951 19.2198 10.1431 22.5468 11.5314 25.7651C13.1663 29.5594 14.7128 33.1425 14.3287 37.2279V37.2546C14.2876 37.7691 14.4684 38.2774 14.8278 38.6485C15.1728 39.0072 15.6555 39.2122 16.1545 39.2122H18.1323L24.7579 58.0053C25.2837 59.4976 26.6926 60.5 28.2637 60.5H32.0694C33.7166 60.5 35.146 59.4341 35.6287 57.8475L41.2869 39.2122H43.2215C43.7206 39.2122 44.2053 39.0072 44.5504 38.6485C44.9098 38.2754 45.0926 37.765 45.0515 37.2505C44.7393 33.2245 46.3207 29.9242 47.9946 26.4272C48.7237 24.9041 49.4774 23.3298 50.0812 21.6694C50.8904 19.4392 51.2067 16.9445 50.9911 14.4539L50.989 14.4519ZM34.0164 57.3596C33.7515 58.2328 32.969 58.8212 32.0674 58.8212H28.2617C27.4032 58.8212 26.631 58.2697 26.3434 57.4478L25.2426 54.3279C26.0128 54.2828 26.787 54.2869 27.5983 54.293C28.2411 54.2971 28.9066 54.3012 29.5699 54.2787C31.3609 54.2172 33.2134 53.9527 35.1932 53.4833L34.0164 57.3617V57.3596ZM35.7642 51.6077C33.5276 52.2042 31.4759 52.5322 29.5145 52.5998C28.886 52.6224 28.2391 52.6162 27.6127 52.6121C26.6515 52.606 25.6595 52.5998 24.6675 52.6839L23.6016 49.6583C23.7392 49.6419 23.8789 49.6255 24.0206 49.6132C24.9571 49.5312 25.8895 49.5373 26.8774 49.5435C27.5203 49.5476 28.1857 49.5517 28.8491 49.5291C31.3198 49.443 33.9384 48.9716 36.8322 48.0942L35.7663 51.6056L35.7642 51.6077ZM37.4216 46.1469C37.3313 46.1776 37.245 46.2063 37.1608 46.233C34.078 47.2333 31.3383 47.7621 28.7895 47.8523C28.1631 47.8749 27.5141 47.8687 26.8877 47.8646C25.9039 47.8585 24.8873 47.8523 23.8707 47.9405C23.5831 47.9651 23.3018 47.9999 23.0286 48.0409L21.9771 45.0563C22.3899 44.9702 22.8294 44.9046 23.2935 44.8636C24.2301 44.7816 25.1625 44.7878 26.1483 44.7939C26.7912 44.798 27.4586 44.8021 28.12 44.7796C30.8289 44.6853 33.7186 44.1298 36.9554 43.0803C37.4832 42.9081 38.007 42.7195 38.5204 42.5268L37.4216 46.1469ZM39.1365 40.4974C39.0195 40.5425 38.9024 40.5856 38.7853 40.6307C38.0172 40.9238 37.2224 41.2292 36.4337 41.4855C33.3489 42.4858 30.6112 43.0147 28.0604 43.1049C27.4319 43.1274 26.785 43.1213 26.1586 43.1172C25.1748 43.111 24.1582 43.1049 23.1416 43.193C22.5316 43.2463 21.9524 43.3385 21.4123 43.4615L19.913 39.2101H39.5247L39.1345 40.4954L39.1365 40.4974ZM48.4978 21.0955C47.9227 22.68 47.1874 24.2154 46.4748 25.7015C44.7783 29.2416 43.0264 32.9047 43.3715 37.3775C43.3756 37.4165 43.3612 37.4554 43.3325 37.4841C43.3037 37.5128 43.2606 37.5313 43.2174 37.5313H16.1545C16.1135 37.5313 16.0703 37.5128 16.0416 37.4841C16.0149 37.4575 16.0025 37.4226 16.0025 37.3857C16.4277 32.8719 14.723 28.9198 13.0759 25.0989C11.6855 21.8744 10.3731 18.8304 10.1985 15.4317C10.0116 11.826 11.4144 8.11574 13.9487 5.50626C16.0929 3.30061 18.8676 2.11784 21.7614 2.17728C22.9731 2.20188 24.1561 2.45812 25.4069 2.7287C26.2839 2.91934 27.1834 3.11202 28.1056 3.22476C28.9969 3.82742 32.969 6.3795 36.9718 6.79973C37.0026 6.80383 37.0314 6.80383 37.0602 6.80383C37.4853 6.80383 37.8509 6.48405 37.896 6.05153C37.9453 5.59031 37.6106 5.17623 37.1485 5.12909C35.1131 4.9159 33.0265 4.04676 31.4594 3.24116C32.4822 3.14687 33.4865 2.98493 34.4744 2.82504C35.0741 2.7287 35.6944 2.62825 36.3023 2.54626C39.3399 2.13629 42.1392 2.87424 44.4004 4.68222C47.134 6.86737 48.9722 10.5715 49.3172 14.5913C49.5103 16.842 49.2289 19.0887 48.5019 21.0914L48.4978 21.0955Z" fill="#4C5B70"/>
</g>
<defs>
<clipPath id="clip0_9352_1260">
<rect width="60" height="60" fill="white" transform="translate(0 0.5)"/>
</clipPath>
</defs>
</svg>
